<?xml version="1.0" encoding="utf-8"?>
<!-- Generator: Adobe Illustrator 25.0.0, SVG Export Plug-In . SVG Version: 6.00 Build 0)  -->
<svg version="1.1" id="Layer_1" xmlns="http://www.w3.org/2000/svg" xmlns:xlink="http://www.w3.org/1999/xlink" x="0px" y="0px"
	 width="150px" height="148.433px" viewBox="0 0 150 148.433" enable-background="new 0 0 150 148.433" xml:space="preserve">
<path fill="#ECC0FF" d="M57.03,70.453c4.201,5.741,3.1,13.695-2.467,17.768c-5.574,4.071-13.493,2.719-17.694-3.023
	c-4.209-5.741-3.1-13.695,2.467-17.768C44.902,63.36,52.822,64.714,57.03,70.453z"/>
<path fill="#ECC0FF" d="M92.206,48.551c0,6.446-5.858,11.671-13.073,11.671c-7.223,0-13.074-5.225-13.074-11.671
	c0-6.446,5.851-11.67,13.074-11.67C86.355,36.881,92.206,42.106,92.206,48.551z"/>
<path fill="#ECC0FF" d="M88.623,114.335c-4.699,4.695-12.86,4.152-18.227-1.214c-5.374-5.366-5.915-13.522-1.216-18.217
	c4.692-4.695,12.86-4.151,18.227,1.214C92.774,101.484,93.322,109.64,88.623,114.335z"/>
<path fill="#ECC0FF" d="M105.649,88.596c5.637-2.041,9.078-6.809,7.692-10.651c-1.393-3.842-7.095-5.302-12.732-3.262
	c-5.637,2.04-9.078,6.809-7.692,10.651C94.31,89.176,100.011,90.637,105.649,88.596z"/>
<path fill="#ECC0FF" d="M18.478,65.113c0.96,2.655-1.415,5.952-5.318,7.363c-3.896,1.411-7.834,0.401-8.801-2.254
	c-0.96-2.655,1.422-5.952,5.318-7.363C13.58,61.448,17.518,62.458,18.478,65.113z"/>
<path fill="#ECC0FF" d="M48.905,18.388c-2.339,1.585-6.121,0.089-8.446-3.341c-2.325-3.43-2.318-7.494,0.021-9.079
	c2.339-1.585,6.121-0.089,8.453,3.341C51.258,12.74,51.243,16.805,48.905,18.388z"/>
<path fill="#ECC0FF" d="M90.002,14.387c-2.673,0.914-5.929-1.521-7.273-5.441c-1.344-3.92-0.263-7.838,2.41-8.754
	c2.673-0.914,5.929,1.521,7.273,5.441C93.755,9.553,92.675,13.473,90.002,14.387z"/>
<path fill="#ECC0FF" d="M136.09,79.752c-1.208-2.553,0.846-6.06,4.592-7.836c3.746-1.777,7.763-1.146,8.972,1.405
	c1.208,2.551-0.846,6.06-4.592,7.836C141.315,82.933,137.298,82.304,136.09,79.752z"/>
<path fill="#ECC0FF" d="M88.36,146.017c-1.209-2.551,0.846-6.06,4.592-7.836c3.739-1.776,7.763-1.145,8.972,1.406
	c1.208,2.551-0.839,6.06-4.585,7.836C93.592,149.199,89.568,148.57,88.36,146.017z"/>
<path fill="#ECC0FF" d="M7.85,129.952c-2.673,0.914-5.929-1.521-7.273-5.441c-1.344-3.92-0.263-7.838,2.417-8.752
	c2.673-0.914,5.929,1.521,7.273,5.441C11.604,125.119,10.523,129.037,7.85,129.952z"/>
<path fill="#ECC0FF" d="M53.774,49.09c0,3.269-4.194,5.919-9.377,5.919s-9.377-2.65-9.377-5.919c0-3.269,4.194-5.919,9.377-5.919
	S53.774,45.821,53.774,49.09z"/>
<path fill="#ECC0FF" d="M116.177,118.355c-2.31,2.311-7.152,1.217-10.813-2.441c-3.668-3.66-4.763-8.501-2.445-10.812
	c2.31-2.311,7.159-1.218,10.82,2.441C117.4,111.202,118.495,116.043,116.177,118.355z"/>
<path fill="#ECC0FF" d="M119.419,43.379c2.168-5.587,0.839-11.314-2.972-12.793c-3.818-1.478-8.666,1.853-10.834,7.439
	c-2.168,5.587-0.839,11.315,2.972,12.793C112.402,52.297,117.251,48.966,119.419,43.379z"/>
<path fill="#ECC0FF" d="M50.312,120.322c2.168-5.587,0.839-11.313-2.972-12.793c-3.818-1.478-8.666,1.851-10.834,7.439
	c-2.168,5.587-0.839,11.313,2.979,12.792C43.295,129.24,48.144,125.909,50.312,120.322z"/>
</svg>
